<svg xmlns="http://www.w3.org/2000/svg" xmlns:xlink="http://www.w3.org/1999/xlink" width="395.493" height="121.478" viewBox="0 0 395.493 121.478">
  <defs>
    <linearGradient id="linear-gradient" x1="0.5" x2="0.5" y2="1" gradientUnits="objectBoundingBox">
      <stop offset="0" stop-color="#fff" stop-opacity="0"/>
      <stop offset="1" stop-color="#fff"/>
    </linearGradient>
  </defs>
  <g id="Group_1202760" data-name="Group 1202760" transform="translate(4252 -1699.972)">
    <path id="Path_1822156" data-name="Path 1822156" d="M89.4,92.15q-14.515,17.418-37.872,17.418a50.225,50.225,0,0,1-19.662-3.827A48.812,48.812,0,0,1,1.776,60.216,48.62,48.62,0,0,1,31.862,14.691a50.225,50.225,0,0,1,19.662-3.827q11.612,0,20.124,3.959A49.855,49.855,0,0,1,87.153,26.3L72.769,40.291a32.431,32.431,0,0,0-8.841-7.06,25.051,25.051,0,0,0-12.272-2.837A31.142,31.142,0,0,0,40.11,32.505a27.061,27.061,0,0,0-9.3,6.07,28.4,28.4,0,0,0-6.2,9.435,31.923,31.923,0,0,0-2.243,12.206A31.923,31.923,0,0,0,24.6,72.422a28.4,28.4,0,0,0,6.2,9.435,27.061,27.061,0,0,0,9.3,6.07,31.142,31.142,0,0,0,11.546,2.111A26.79,26.79,0,0,0,64.72,87a33.152,33.152,0,0,0,10.029-8.709Zm49.748,17.418a42.849,42.849,0,0,1-15.571-2.705A31.312,31.312,0,0,1,111.7,98.88a36.158,36.158,0,0,1-7.522-12.866,52.693,52.693,0,0,1-2.639-17.352V12.975h20.585V69.981q0,8.709,4.355,14.383t12.668,5.674q8.313,0,12.668-5.674t4.355-14.383V12.975h20.585V68.662a49.517,49.517,0,0,1-2.639,16.495,37.648,37.648,0,0,1-7.522,12.932,34,34,0,0,1-11.876,8.445A38.717,38.717,0,0,1,139.144,109.569Zm54.5-96.593h35.629A38.375,38.375,0,0,1,243,15.285a29.113,29.113,0,0,1,10.227,6.4,27.287,27.287,0,0,1,6.334,9.7,33.442,33.442,0,0,1,2.177,12.206,23.764,23.764,0,0,1-1.517,8.577,29.2,29.2,0,0,1-4.091,7.324,30.722,30.722,0,0,1-6,5.938,36.378,36.378,0,0,1-7.39,4.289V70.9l24.676,35.233v1.32H243.919L220.035,73.412h-5.806v34.045H193.643ZM229.272,54.41q5.542,0,8.709-3.233a10.964,10.964,0,0,0,3.167-7.983,11.362,11.362,0,0,0-2.969-7.983q-2.969-3.233-8.907-3.233H214.229V54.41Zm69.542-21.905V50.451H336.29v19.53H298.814V87.928h41.7v19.53H278.228V12.975h62.284v19.53Z" transform="translate(-4225.689 1689.108)" fill="#f0f1f2" opacity="0.52"/>
    <rect id="Rectangle_183279" data-name="Rectangle 183279" width="395.493" height="74.392" transform="translate(-4252 1747.058)" fill="url(#linear-gradient)"/>
  </g>
</svg>
