<svg xmlns="http://www.w3.org/2000/svg" xmlns:xlink="http://www.w3.org/1999/xlink" width="70" height="70" viewBox="0 0 70 70">
  <defs>
    <clipPath id="clip-path">
      <rect id="Rectangle_181902" data-name="Rectangle 181902" width="70" height="70" transform="translate(8331 -10621)" fill="#fff"/>
    </clipPath>
  </defs>
  <g id="Mask_Group_1065016" data-name="Mask Group 1065016" transform="translate(-8331 10621)" clip-path="url(#clip-path)">
    <g id="Group_1159891" data-name="Group 1159891" transform="translate(8331 -10597)">
      <g id="Group_1054590" data-name="Group 1054590" transform="translate(56.278 6.142)" opacity="0.513">
        <circle id="Ellipse_49150" data-name="Ellipse 49150" cx="6.277" cy="6.277" r="6.277" transform="translate(4.703 0) rotate(22)" fill="rgba(42,157,143,0.1)"/>
        <path id="Ellipse_49151_-_Outline" data-name="Ellipse 49151 - Outline" d="M2.4-3A5.4,5.4,0,1,1-3,2.4,5.405,5.405,0,0,1,2.4-3ZM2.092,2.4,2.4,2.092A.308.308,0,0,0,2.092,2.4Z" transform="translate(5.773 5.773)" fill="rgba(29,29,29,0.35)"/>
        <circle id="Ellipse_49151" data-name="Ellipse 49151" cx="2.853" cy="2.853" r="2.853" transform="translate(5.318 5.319)" fill="rgba(255,255,255,0.6)"/>
      </g>
      <path id="Path_1" data-name="Path 1" d="M685.579,74.5a6.269,6.269,0,0,1-1.462,2.923,5.832,5.832,0,0,1-2.476,1.6,10.562,10.562,0,0,1-3.253.472,8.994,8.994,0,0,1-4.244-.943,6.555,6.555,0,0,1-2.736-2.736,10.449,10.449,0,0,1,0-8.675,6.555,6.555,0,0,1,2.735-2.736,8.993,8.993,0,0,1,4.244-.943,10.079,10.079,0,0,1,3.206.5,5.941,5.941,0,0,1,2.5,1.509,5.126,5.126,0,0,1,1.367,2.711l-4.715,1.839a2.923,2.923,0,0,0-.778-1.98,2.245,2.245,0,0,0-1.438-.448,2.048,2.048,0,0,0-1.839.943,5.454,5.454,0,0,0-.613,2.947,5.914,5.914,0,0,0,.566,2.947,2.176,2.176,0,0,0,2,.943,1.983,1.983,0,0,0,1.391-.5,2.65,2.65,0,0,0,.684-1.627Zm16.073-10.8v8.864q0,6.931-7.521,6.931t-7.521-6.931V63.7h5.517v9.289q0,2.381,2,2.381,2.028,0,2.028-2.381V63.7Zm10.489,0a7.063,7.063,0,0,1,4.668,1.367,4.412,4.412,0,0,1,1.627,3.584,4.486,4.486,0,0,1-2.923,4.644l3.8,5.965h-5.966L710.585,74.1h-1.508v5.163H703.7V63.7Zm-.943,6.79a2.222,2.222,0,0,0,1.3-.307,1.316,1.316,0,0,0,.448-1.132,1.287,1.287,0,0,0-.448-1.108,2.1,2.1,0,0,0-1.3-.33h-2.122v2.877Zm9.126,8.771V63.7h12.919v4.03h-7.426v1.935h5.988v3.725h-5.988v1.839h7.709v4.033Z" transform="translate(-670.463 -63.464)" fill="#1d1d1d"/>
    </g>
  </g>
</svg>
